<svg enable-background="new 0 0 512 512" viewBox="0 0 512 512" xmlns="http://www.w3.org/2000/svg"><path d="m298.667 34.133h-85.333c-4.713 0-8.533 3.82-8.533 8.533v298.667c0 4.713 3.821 8.533 8.533 8.533h85.333c4.713 0 8.533-3.82 8.533-8.533v-298.666c0-4.713-3.82-8.534-8.533-8.534zm-8.534 298.667h-68.267v-281.6h68.267z"/><path d="m256 375.467c-28.277 0-51.2 22.923-51.2 51.2s22.923 51.2 51.2 51.2 51.2-22.923 51.2-51.2-22.923-51.2-51.2-51.2zm0 85.333c-18.851 0-34.133-15.282-34.133-34.133s15.282-34.133 34.133-34.133 34.133 15.282 34.133 34.133-15.282 34.133-34.133 34.133z"/><path d="m469.333 0h-119.466c-6.315.038-12.393 2.408-17.067 6.656-4.673-4.248-10.752-6.618-17.067-6.656h-119.466c-6.315.038-12.393 2.408-17.067 6.656-4.673-4.248-10.752-6.618-17.067-6.656h-119.466c-14.138 0-25.6 11.461-25.6 25.6v460.8c0 14.138 11.462 25.6 25.6 25.6h119.467c6.315-.038 12.393-2.408 17.067-6.656 4.673 4.248 10.752 6.618 17.067 6.656h119.467c6.315-.038 12.393-2.408 17.067-6.656 4.673 4.248 10.752 6.618 17.067 6.656h119.467c14.138 0 25.6-11.461 25.6-25.6v-460.8c-.003-14.139-11.464-25.6-25.603-25.6zm-298.666 486.4c0 4.713-3.82 8.533-8.533 8.533h-119.467c-4.713 0-8.533-3.82-8.533-8.533v-460.8c0-4.713 3.82-8.533 8.533-8.533h119.467c4.713 0 8.533 3.82 8.533 8.533zm153.6 0c0 4.713-3.82 8.533-8.533 8.533h-119.467c-4.713 0-8.533-3.82-8.533-8.533v-460.8c0-4.713 3.82-8.533 8.533-8.533h119.467c4.713 0 8.533 3.82 8.533 8.533zm153.6 0c0 4.713-3.82 8.533-8.533 8.533h-119.467c-4.713 0-8.533-3.82-8.533-8.533v-460.8c0-4.713 3.82-8.533 8.533-8.533h119.467c4.713 0 8.533 3.82 8.533 8.533z"/><path d="m145.067 34.133h-85.334c-4.713 0-8.533 3.82-8.533 8.533v298.667c0 4.713 3.82 8.533 8.533 8.533h85.333c4.713 0 8.533-3.82 8.533-8.533v-298.666c.001-4.713-3.82-8.534-8.532-8.534zm-8.534 298.667h-68.266v-281.6h68.267v281.6z"/><path d="m102.4 375.467c-28.277 0-51.2 22.923-51.2 51.2s22.923 51.2 51.2 51.2 51.2-22.923 51.2-51.2-22.923-51.2-51.2-51.2zm0 85.333c-18.851 0-34.133-15.282-34.133-34.133s15.282-34.133 34.133-34.133 34.133 15.282 34.133 34.133-15.282 34.133-34.133 34.133z"/><path d="m452.267 34.133h-85.333c-4.713 0-8.533 3.82-8.533 8.533v298.667c0 4.713 3.82 8.533 8.533 8.533h85.333c4.713 0 8.533-3.82 8.533-8.533v-298.666c0-4.713-3.821-8.534-8.533-8.534zm-8.534 298.667h-68.267v-281.6h68.267z"/><path d="m409.6 375.467c-28.277 0-51.2 22.923-51.2 51.2s22.923 51.2 51.2 51.2 51.2-22.923 51.2-51.2-22.923-51.2-51.2-51.2zm0 85.333c-18.851 0-34.133-15.282-34.133-34.133s15.282-34.133 34.133-34.133 34.133 15.282 34.133 34.133-15.282 34.133-34.133 34.133z"/></svg>