<svg viewBox="0 0 512 487.25" xmlns="http://www.w3.org/2000/svg"><path d="m455.07 172.61 54-54a10 10 0 0 0 -2.26-15.84l-64.91-35.63a10 10 0 1 0 -9.63 17.53l53.24 29.23-46.34 46.33-166.67-91.51 46.34-46.34 46.84 25.72a10 10 0 0 0 9.62-17.53l-53.42-29.34a10 10 0 0 0 -11.88 1.7l-54 54-54-54a10 10 0 0 0 -11.88-1.7l-184.93 101.55a10 10 0 0 0 -2.26 15.84l54 54-54 54a10 10 0 0 0 2.26 15.83l55.88 30.69v102.56a10 10 0 0 0 5.19 8.77l184.93 101.53a9.95 9.95 0 0 0 9.62 0l184.93-101.53a10 10 0 0 0 5.19-8.77v-102.57l55.88-30.68a10 10 0 0 0 2.26-15.84zm-199.07 90.14-164.15-90.14 164.15-90.14 164.15 90.14zm-62.83-240.37 46.33 46.34-166.67 91.51-46.33-46.33zm-120.33 162.62 166.67 91.52-46.34 46.34-166.67-91.53zm358.09 184.8-164.93 90.55v-102.22a10 10 0 0 0 -20 0v102.22l-164.93-90.56v-85.68l109.05 59.89a10 10 0 0 0 11.88-1.7l54-54 54 54a10 10 0 0 0 11.88 1.7l109.05-59.88zm-112.09-46.95-46.34-46.35 166.66-91.5 46.35 46.33z"/><path d="m404.8 66a10 10 0 1 0 -7.07-2.94 10.06 10.06 0 0 0 7.07 2.94z"/><path d="m256 312.78a10 10 0 0 0 -10 10 10 10 0 1 0 17.07-7.07 10 10 0 0 0 -7.07-2.93z"/></svg>