<svg enable-background="new 0 0 469.333 469.333" viewBox="0 0 469.333 469.333" xmlns="http://www.w3.org/2000/svg"><path d="m466.208 88.458-85.333-85.333c-2-2-4.708-3.125-7.542-3.125h-330.666c-23.521 0-42.667 19.135-42.667 42.667v384c0 23.531 19.146 42.667 42.667 42.667h384c23.521 0 42.667-19.135 42.667-42.667v-330.667c-.001-2.833-1.126-5.542-3.126-7.542zm-359.541-67.125h234.667v128c0 11.76-9.563 21.333-21.333 21.333h-192.001c-11.771 0-21.333-9.573-21.333-21.333zm277.333 426.667h-298.667v-192h298.667zm64-21.333c0 11.76-9.563 21.333-21.333 21.333h-21.333v-202.667c0-5.896-4.771-10.667-10.667-10.667h-320c-5.896 0-10.667 4.771-10.667 10.667v202.667h-21.333c-11.771 0-21.333-9.573-21.333-21.333v-384c0-11.76 9.563-21.333 21.333-21.333h42.667v128c-.001 23.531 19.145 42.666 42.666 42.666h192c23.521 0 42.667-19.135 42.667-42.667v-128h6.25l79.083 79.084z"/><path d="m266.667 149.333h42.667c5.896 0 10.667-4.771 10.667-10.667v-85.333c0-5.896-4.771-10.667-10.667-10.667h-42.667c-5.896 0-10.667 4.771-10.667 10.667v85.333c0 5.896 4.771 10.667 10.667 10.667zm10.666-85.333h21.333v64h-21.333z"/></svg>